<svg viewBox="0 -31 512 512" xmlns="http://www.w3.org/2000/svg"><style>.a{fill:#FFF;}</style><path d="m211 240h90v30h-90zm0 0" class="a"/><path d="m415.4 270h-84.4v15c0 8.3-6.7 15-15 15h-120c-8.3 0-15-6.7-15-15v-15h-84.4c-19.4 0-36.5-12.4-42.7-30.8l-53.9-161.8v327.6c0 24.8 20.2 45 45 45h422c24.8 0 45-20.2 45-45v-327.6l-53.9 161.8c-6.1 18.4-23.3 30.8-42.7 30.8zm0 0" class="a"/><path d="m316 0h-120c-24.8 0-45 20.2-45 45v15h-125.2l56.6 169.7c2.1 6.1 7.8 10.3 14.2 10.3h84.4v-15c0-8.3 6.7-15 15-15h120c8.3 0 15 6.7 15 15v15h84.4c6.5 0 12.2-4.1 14.2-10.3l56.6-169.7h-125.2v-15c0-24.8-20.2-45-45-45zm-135 60v-15c0-8.3 6.7-15 15-15h120c8.3 0 15 6.7 15 15v15zm0 0" class="a"/></svg>